<svg width="32" height="32" viewBox="0 0 32 32" fill="none" xmlns="http://www.w3.org/2000/svg">
<path d="M15.9994 20.4445C15.8531 20.4453 15.7082 20.4173 15.5728 20.362C15.4374 20.3067 15.3143 20.2252 15.2105 20.1222L8.54381 13.4556C8.33458 13.2463 8.21704 12.9626 8.21704 12.6667C8.21704 12.3708 8.33458 12.087 8.54381 11.8778C8.75304 11.6686 9.03681 11.551 9.3327 11.551C9.62859 11.551 9.91236 11.6686 10.1216 11.8778L15.9994 17.7667L21.8771 11.8889C22.0897 11.7069 22.3631 11.6118 22.6428 11.6226C22.9224 11.6334 23.1877 11.7493 23.3855 11.9472C23.5834 12.1451 23.6994 12.4103 23.7102 12.69C23.721 12.9696 23.6258 13.243 23.4438 13.4556L16.7771 20.1222C16.5702 20.3275 16.2909 20.4432 15.9994 20.4445Z" fill="black"/>
</svg>
