<svg width="40" height="30" viewBox="0 0 40 30" fill="none" xmlns="http://www.w3.org/2000/svg">
<path d="M15 0.5H39.5V29.5H15C6.99187 29.5 0.5 23.0081 0.5 15C0.5 6.99187 6.99187 0.5 15 0.5Z" fill="#EEEEEE" stroke="#E1E1E1"/>
<path d="M16.6666 14.9998C16.666 14.8902 16.687 14.7814 16.7285 14.6799C16.7699 14.5784 16.831 14.486 16.9083 14.4082L21.9083 9.40816C22.0652 9.25124 22.278 9.16309 22.4999 9.16309C22.7218 9.16309 22.9347 9.25124 23.0916 9.40816C23.2485 9.56508 23.3367 9.77791 23.3367 9.99983C23.3367 10.2217 23.2485 10.4346 23.0916 10.5915L18.6749 14.9998L23.0833 19.4082C23.2198 19.5676 23.2911 19.7726 23.283 19.9824C23.2749 20.1921 23.188 20.3911 23.0396 20.5395C22.8912 20.6879 22.6922 20.7748 22.4825 20.7829C22.2727 20.791 22.0677 20.7197 21.9083 20.5832L16.9083 15.5832C16.7543 15.4279 16.6675 15.2184 16.6666 14.9998Z" fill="black"/>
</svg>
