<svg width="62" height="62" viewBox="0 0 62 62" fill="none" xmlns="http://www.w3.org/2000/svg">
<path d="M22.3888 31.0008C22.3872 31.2842 22.4415 31.565 22.5486 31.8273C22.6558 32.0896 22.8136 32.3282 23.0131 32.5293L35.9298 45.446C36.3352 45.8514 36.885 46.0791 37.4583 46.0791C38.0316 46.0791 38.5814 45.8514 38.9868 45.446C39.3921 45.0406 39.6199 44.4908 39.6199 43.9175C39.6199 43.3442 39.3921 42.7944 38.9868 42.389L27.577 31.0008L38.9652 19.6127C39.3179 19.2008 39.5022 18.6711 39.4813 18.1293C39.4603 17.5875 39.2357 17.0735 38.8523 16.6901C38.4689 16.3067 37.955 16.0821 37.4132 16.0612C36.8714 16.0403 36.3416 16.2246 35.9298 16.5772L23.0131 29.4939C22.6154 29.8949 22.3912 30.4361 22.3888 31.0008Z" fill="white"/>
</svg>
