<svg width="32" height="32" viewBox="0 0 32 32" fill="none" xmlns="http://www.w3.org/2000/svg">
<g clip-path="url(#clip0_139_594)">
<path d="M15.3334 5.33325C11.1673 5.33325 7.77783 8.72276 7.77783 12.8888C7.77783 14.1395 8.09052 15.3795 8.68494 16.4794L14.9202 27.7564C15.0032 27.9068 15.1614 27.9999 15.3334 27.9999C15.5054 27.9999 15.6636 27.9068 15.7466 27.7564L21.9842 16.4756C22.5763 15.3795 22.889 14.1394 22.889 12.8888C22.889 8.72276 19.4995 5.33325 15.3334 5.33325ZM21.1555 16.0224L15.3334 26.5519L9.51365 16.0265C8.99577 15.0682 8.72231 13.9832 8.72231 12.8888C8.72231 9.24339 11.688 6.27773 15.3334 6.27773C18.9788 6.27773 21.9445 9.24343 21.9445 12.8888C21.9445 13.9831 21.671 15.0682 21.1555 16.0224Z" fill="black"/>
<path d="M15.3334 9.11108C13.2504 9.11108 11.5557 10.8058 11.5557 12.8888C11.5557 14.9719 13.2504 16.6667 15.3334 16.6667C17.4165 16.6667 19.1112 14.9719 19.1112 12.8889C19.1112 10.8059 17.4165 9.11108 15.3334 9.11108ZM15.3334 15.7222C13.771 15.7222 12.5001 14.4513 12.5001 12.8889C12.5001 11.3265 13.771 10.0556 15.3334 10.0556C16.8958 10.0556 18.1668 11.3265 18.1668 12.8889C18.1668 14.4513 16.8958 15.7222 15.3334 15.7222Z" fill="black"/>
</g>
<defs>
<clipPath id="clip0_139_594">
<rect width="22.6667" height="22.6667" fill="white" transform="translate(4 5.33325)"/>
</clipPath>
</defs>
</svg>
