<svg width="32" height="32" viewBox="0 0 32 32" fill="none" xmlns="http://www.w3.org/2000/svg">
<rect width="32" height="32" fill="white"/>
<g clip-path="url(#clip0_144_714)">
<path d="M7.84365 11.7859L4.85303 14.1875V25.289C4.85303 26.3151 5.68478 27.1468 6.71084 27.1468H25.289C26.315 27.1468 27.1468 26.3151 27.1468 25.289V14.1875L24.1562 11.8585" fill="#72D8FF"/>
<path d="M23.9749 4.85303H8.0249V22.1198H23.9749V4.85303Z" fill="#EDF2FA"/>
<path d="M19.0358 22.3252H12.716L4.85303 14.1875V25.2891C4.85303 26.3151 5.68478 27.1469 6.71084 27.1469H25.289C26.315 27.1469 27.1468 26.3151 27.1468 25.2891V14.1875L19.0358 22.3252Z" fill="#FEDA9B"/>
<path d="M6.39624 26.8296L12.9659 20.8616C14.6867 19.2984 17.3134 19.2984 19.0341 20.8616L25.6038 26.8296H6.39624Z" fill="#FFB954"/>
<path d="M20.6086 10.2946C21.1838 9.71944 21.1838 8.78687 20.6086 8.21167C20.0334 7.63647 19.1008 7.63647 18.5256 8.21167L20.6086 10.2946Z" fill="#FF5D5D"/>
<path d="M15.8065 15.8331L14.1009 17.5387C13.3229 18.3167 12.0616 18.3167 11.2837 17.5387C10.5057 16.7608 10.5057 15.4995 11.2837 14.7215L12.9893 13.0159L15.8065 15.8331Z" fill="#FF5D5D"/>
<path d="M15.807 15.834L17.8033 17.8303L16.591 19.0426L14.594 17.0456L15.807 15.834Z" fill="#6A80FF"/>
<path d="M15.807 15.8338L12.9893 13.0158L16.0773 5.76318L23.057 12.7429L15.807 15.8338Z" fill="#4DBAF6"/>
<path d="M21.1964 13.5361L23.0569 12.7429L16.0772 5.76318L15.2847 7.62449L21.1964 13.5361Z" fill="white"/>
<path d="M13.0515 7.07027C12.9672 7.15455 12.9187 7.27145 12.9187 7.39062C12.9187 7.5098 12.9672 7.6267 13.0515 7.71094C13.1357 7.79527 13.2527 7.84375 13.3718 7.84375C13.491 7.84375 13.6079 7.79527 13.6922 7.71094C13.7765 7.6267 13.825 7.5098 13.825 7.39062C13.825 7.27145 13.7765 7.15455 13.6922 7.07027C13.6079 6.98598 13.491 6.9375 13.3718 6.9375C13.2527 6.9375 13.1357 6.98594 13.0515 7.07027Z" fill="black"/>
<path d="M9.87695 7.84375H11.6973C11.9476 7.84375 12.1504 7.64084 12.1504 7.39062C12.1504 7.14041 11.9476 6.9375 11.6973 6.9375H9.87695C9.62669 6.9375 9.42383 7.14041 9.42383 7.39062C9.42383 7.64084 9.62669 7.84375 9.87695 7.84375Z" fill="black"/>
<path d="M9.87695 10.3811H12.0607C12.311 10.3811 12.5139 10.1782 12.5139 9.92798C12.5139 9.67776 12.311 9.47485 12.0607 9.47485H9.87695C9.62669 9.47485 9.42383 9.67776 9.42383 9.92798C9.42383 10.1782 9.62669 10.3811 9.87695 10.3811Z" fill="black"/>
<path d="M27.425 13.8302C27.425 13.8301 27.4251 13.83 27.4252 13.8299L24.4346 11.501C24.4324 11.4993 24.4302 11.498 24.428 11.4964V11.0155C24.428 10.7653 24.2252 10.5624 23.9749 10.5624C23.7246 10.5624 23.5218 10.7653 23.5218 11.0155V17.1629C23.5218 17.1657 23.5221 17.1684 23.5222 17.1711L19.7728 20.9205L19.3387 20.5262C18.6602 19.9097 17.8333 19.4988 16.9473 19.3271L18.1237 18.1506C18.3007 17.9737 18.3007 17.6868 18.1237 17.5098L16.6017 15.9877L23.2347 13.1598C23.3732 13.1008 23.4733 12.9768 23.5019 12.8291C23.5305 12.6813 23.4839 12.529 23.3774 12.4225L21.2115 10.2566C21.3949 9.95739 21.4931 9.61283 21.4931 9.25305C21.4931 8.73857 21.2928 8.25495 20.929 7.89114C20.5653 7.52737 20.0816 7.32704 19.5671 7.32704C19.2073 7.32704 18.8628 7.42533 18.5636 7.60866L16.3977 5.44272C16.2912 5.33624 16.1389 5.28948 15.991 5.3183C15.8432 5.34693 15.7193 5.44712 15.6603 5.58559L12.6067 12.7574L10.9631 14.401C10.5013 14.8628 10.2469 15.4769 10.2469 16.13C10.2469 16.7831 10.5013 17.3972 10.9631 17.859C11.4249 18.3208 12.039 18.5752 12.6921 18.5752C13.3453 18.5752 13.9593 18.3209 14.4211 17.859L14.5939 17.6862L16.1461 19.2383C16.0974 19.2369 16.0487 19.2359 15.9998 19.2359C14.7626 19.2359 13.5768 19.694 12.661 20.526L12.2269 20.9204L8.47748 17.171C8.47753 17.1682 8.47789 17.1656 8.47789 17.1628V5.30615H13.5523C13.8026 5.30615 14.0054 5.10324 14.0054 4.85303C14.0054 4.60281 13.8026 4.3999 13.5523 4.3999H8.0249C7.77464 4.3999 7.57178 4.60281 7.57178 4.85303V11.424C7.56788 11.4269 7.56376 11.4295 7.55995 11.4325L4.56933 13.8341C4.56937 13.8342 4.56937 13.8342 4.56942 13.8343C4.46615 13.9174 4.3999 14.0446 4.3999 14.1874V25.289C4.3999 26.5632 5.43656 27.5999 6.71084 27.5999H25.289C26.5632 27.5999 27.5999 26.5632 27.5999 25.289V14.1874C27.5999 14.0421 27.5313 13.9132 27.425 13.8302ZM15.4388 8.41939L20.4018 13.3824L15.9112 15.2969L13.5261 12.9118L15.4388 8.41939ZM19.5672 8.23339C19.8395 8.23339 20.0957 8.33946 20.2883 8.53209C20.4809 8.72466 20.5869 8.98072 20.5869 9.25314C20.5869 9.36552 20.5679 9.47477 20.5331 9.57831L19.242 8.28713C19.3456 8.25237 19.4548 8.23339 19.5672 8.23339ZM16.2314 6.55809L18.2047 8.53145C18.2049 8.53163 18.2051 8.53186 18.2053 8.53209C18.2054 8.53231 18.2057 8.53245 18.2059 8.53263L20.2882 10.615L20.2883 10.6151L20.2884 10.6151L22.2625 12.5892L21.3005 12.9993L15.8216 7.52044L16.2314 6.55809ZM12.6922 17.669C12.2812 17.669 11.8947 17.5089 11.604 17.2183C11.3133 16.9276 11.1532 16.5412 11.1532 16.1301C11.1532 15.719 11.3133 15.3325 11.604 15.0419L12.9892 13.6566L15.1656 15.8332L13.7804 17.2183C13.4898 17.5089 13.1033 17.669 12.6922 17.669ZM15.8063 16.474L17.1625 17.8302L16.591 18.4016L15.2348 17.0454L15.8063 16.474ZM24.428 12.6445L26.4636 14.2297L24.428 16.2653V12.6445ZM13.2705 21.1969C14.8265 19.7834 17.1733 19.7834 18.7293 21.1969L24.7801 26.6937H7.2197L8.7161 25.3343H12.0422C12.2924 25.3343 12.4953 25.1314 12.4953 24.8812C12.4953 24.6309 12.2924 24.428 12.0422 24.428H9.7137L13.2705 21.1969ZM7.57178 12.5853V16.2653L5.53077 14.2243L7.57178 12.5853ZM5.30615 25.289V15.2814L11.5554 21.5306L6.09146 26.4942C6.07864 26.5059 6.06681 26.5182 6.05562 26.5309C5.61034 26.2951 5.30615 25.827 5.30615 25.289ZM25.9442 26.5309C25.933 26.5182 25.9212 26.5059 25.9083 26.4942L20.4444 21.5306L26.6937 15.2814V25.289C26.6937 25.827 26.3895 26.2951 25.9442 26.5309Z" fill="black"/>
<path d="M22.1623 7.15442C22.2783 7.15442 22.3943 7.11015 22.4827 7.0217L24.3132 5.19125C24.4901 5.01431 24.4901 4.72739 24.3132 4.5504C24.1362 4.3735 23.8493 4.3735 23.6724 4.5504L21.8419 6.38084C21.665 6.55779 21.665 6.84471 21.8419 7.0217C21.9304 7.11015 22.0464 7.15442 22.1623 7.15442Z" fill="black"/>
<path d="M20.4592 6.21634C20.7095 6.21634 20.9124 6.01344 20.9124 5.76322V4.85303C20.9124 4.60281 20.7095 4.3999 20.4592 4.3999C20.209 4.3999 20.0061 4.60281 20.0061 4.85303V5.76322C20.0061 6.01344 20.209 6.21634 20.4592 6.21634Z" fill="black"/>
<path d="M24.0061 7.9126H23.0654C22.8152 7.9126 22.6123 8.11551 22.6123 8.36572C22.6123 8.61594 22.8152 8.81885 23.0654 8.81885H24.0061C24.2563 8.81885 24.4592 8.61594 24.4592 8.36572C24.4592 8.11551 24.2563 7.9126 24.0061 7.9126Z" fill="black"/>
<path d="M13.9001 25.3342C14.0193 25.3342 14.1358 25.2857 14.2205 25.2014C14.3048 25.1172 14.3533 25.0003 14.3533 24.8811C14.3533 24.7619 14.3048 24.645 14.2205 24.5607C14.1358 24.4765 14.0193 24.428 13.9001 24.428C13.7805 24.428 13.6641 24.4764 13.5793 24.5607C13.4951 24.645 13.447 24.7619 13.447 24.8811C13.447 25.0003 13.4951 25.1172 13.5793 25.2014C13.6641 25.2857 13.781 25.3342 13.9001 25.3342Z" fill="black"/>
</g>
<defs>
<clipPath id="clip0_144_714">
<rect width="23.2" height="23.2" fill="white" transform="translate(4.3999 4.3999)"/>
</clipPath>
</defs>
</svg>
