<svg width="62" height="62" viewBox="0 0 62 62" fill="none" xmlns="http://www.w3.org/2000/svg">
<path d="M39.6112 31.0008C39.6128 31.2842 39.5585 31.565 39.4514 31.8273C39.3442 32.0896 39.1864 32.3282 38.9869 32.5293L26.0702 45.446C25.6648 45.8514 25.115 46.0791 24.5417 46.0791C23.9684 46.0791 23.4186 45.8514 23.0132 45.446C22.6079 45.0406 22.3801 44.4908 22.3801 43.9175C22.3801 43.3442 22.6079 42.7944 23.0132 42.389L34.423 31.0008L23.0348 19.6127C22.6821 19.2008 22.4978 18.6711 22.5187 18.1293C22.5397 17.5875 22.7643 17.0735 23.1477 16.6901C23.5311 16.3067 24.045 16.0821 24.5868 16.0612C25.1286 16.0403 25.6584 16.2246 26.0702 16.5772L38.9869 29.4939C39.3846 29.8949 39.6088 30.4361 39.6112 31.0008Z" fill="white"/>
</svg>
