<svg width="40" height="30" viewBox="0 0 40 30" fill="none" xmlns="http://www.w3.org/2000/svg">
<path d="M0.5 0.5H25C33.0081 0.5 39.5 6.99187 39.5 15C39.5 23.0081 33.0081 29.5 25 29.5H0.5V0.5Z" fill="#EEEEEE" stroke="#E1E1E1"/>
<path d="M23.3334 15.0002C23.334 15.1098 23.313 15.2186 23.2715 15.3201C23.2301 15.4216 23.169 15.514 23.0917 15.5918L18.0917 20.5918C17.9348 20.7488 17.722 20.8369 17.5001 20.8369C17.2782 20.8369 17.0653 20.7488 16.9084 20.5918C16.7515 20.4349 16.6633 20.2221 16.6633 20.0002C16.6633 19.7783 16.7515 19.5654 16.9084 19.4085L21.3251 15.0002L16.9167 10.5918C16.7802 10.4324 16.7089 10.2274 16.717 10.0176C16.7251 9.8079 16.812 9.60895 16.9604 9.46053C17.1088 9.31212 17.3078 9.22518 17.5175 9.21708C17.7273 9.20898 17.9323 9.28031 18.0917 9.41684L23.0917 14.4168C23.2457 14.5721 23.3325 14.7816 23.3334 15.0002Z" fill="black"/>
</svg>
