<svg width="40" height="40" viewBox="0 0 40 40" fill="none" xmlns="http://www.w3.org/2000/svg">
<g clip-path="url(#clip0_139_577)">
<path d="M23.3411 24.0062L24.0537 24.7191L24.8869 25.5479L25.2079 25.8713L26.8703 24.2077L25.0064 22.3408L23.3411 24.0062Z" fill="#5D6D7E"/>
<path d="M28.5657 24.1965L34.3025 29.933C34.734 30.3634 35.0018 30.9608 35.0001 31.6178C35.0001 32.276 34.734 32.8728 34.3025 33.3049C33.8721 33.7347 33.2762 33.9999 32.618 33.9999C31.9601 33.9999 31.3648 33.7347 30.9332 33.3034L25.1968 27.5664L28.5657 24.1965Z" fill="#FF8E31"/>
<path d="M27.7739 24.9895L28.2401 24.5225L33.9774 30.2598C34.3397 30.6223 34.5389 31.1044 34.5386 31.6176C34.5386 32.1322 34.3387 32.6152 33.9774 32.9783C33.9114 33.0417 33.8269 33.0736 33.7437 33.0736C33.6585 33.0736 33.5746 33.0417 33.5091 32.9774C33.3813 32.848 33.3813 32.6406 33.5091 32.5121C33.7483 32.2737 33.8791 31.9544 33.8791 31.6168C33.88 31.2805 33.7484 30.9635 33.5108 30.7263L27.7739 24.9895Z" fill="#FECE59"/>
<path d="M25.1964 27.5664L28.5656 24.1963L28.3144 23.9445C28.1627 23.7922 27.9553 23.6997 27.7248 23.6997C27.4928 23.6997 27.2849 23.7918 27.1347 23.9433L24.9437 26.1354C24.7932 26.2848 24.6992 26.4927 24.6992 26.725C24.6992 26.9538 24.793 27.1644 24.9437 27.3128L25.1964 27.5664Z" fill="#34495E"/>
<path d="M6 15.7712C6 9.82361 10.8226 5.00049 16.7713 5.00049C22.7207 5.00049 27.543 9.82389 27.543 15.7712C27.543 21.7206 22.7201 26.5428 16.7713 26.5443C10.8226 26.5428 6 21.7204 6 15.7712Z" fill="#34495E"/>
<path d="M16.7713 25.377C22.0749 25.377 26.3766 21.0769 26.3766 15.7709C26.3766 10.468 22.075 6.1665 16.7713 6.1665C11.4669 6.16662 7.16577 10.4678 7.16577 15.771C7.16577 21.0769 11.4669 25.377 16.7713 25.377Z" fill="#5D6D7E"/>
<path d="M16.7713 24.608C21.6507 24.608 25.6076 20.6527 25.6076 15.7708C25.6076 10.8926 21.6505 6.93481 16.7713 6.93481C11.8921 6.93481 7.93457 10.8926 7.93457 15.7708C7.93457 20.6524 11.891 24.608 16.7713 24.608Z" fill="#CEE2F2"/>
<path d="M17.0037 8.38574C16.8532 8.16246 16.5945 8.02267 16.3099 8.03887C15.0901 8.11296 13.9373 8.45648 12.8839 9.06809C12.5131 9.28502 12.3858 9.76307 12.6019 10.1357C12.818 10.5037 13.2966 10.6347 13.6664 10.4157C14.5066 9.93095 15.4264 9.65556 16.4014 9.59615C16.8297 9.57383 17.1592 9.20436 17.1326 8.77633C17.1277 8.62799 17.078 8.4946 17.0037 8.38574Z" fill="white"/>
<path d="M12.0005 10.9477C11.959 10.8855 11.9049 10.8278 11.8456 10.7786C11.5111 10.505 11.0206 10.5582 10.7502 10.8924C9.95412 11.8697 9.4063 13.0422 9.16444 14.2901C8.87835 15.7721 9.02799 17.2895 9.59627 18.68C9.76189 19.0807 10.2177 19.269 10.6153 19.1051C11.0141 18.9436 11.2041 18.4894 11.0408 18.0886C10.5876 16.9798 10.4701 15.7689 10.7002 14.586C10.8884 13.5899 11.326 12.6546 11.961 11.8747C12.1817 11.6032 12.1876 11.2221 12.0005 10.9477Z" fill="white"/>
</g>
<defs>
<clipPath id="clip0_139_577">
<rect width="29" height="29" fill="white" transform="translate(6 5)"/>
</clipPath>
</defs>
</svg>
