<svg width="41" height="41" viewBox="0 0 41 41" fill="none" xmlns="http://www.w3.org/2000/svg">
<g clip-path="url(#clip0_139_95)">
<path d="M40.8729 10.3534C40.5762 9.76015 39.8549 9.51959 39.2614 9.81628L34.4567 12.2186C33.8634 12.5153 33.6229 13.2368 33.9196 13.8302C34.2162 14.4235 34.9376 14.6641 35.5311 14.3674L40.3357 11.965C40.9291 11.6683 41.1696 10.9468 40.8729 10.3534Z" fill="black"/>
<path d="M40.3357 24.2303L35.5311 21.8279C34.938 21.5314 34.2163 21.7717 33.9196 22.3651C33.6229 22.9585 33.8634 23.68 34.4567 23.9767L39.2614 26.379C39.8548 26.6757 40.5763 26.4352 40.8729 25.8419C41.1696 25.2485 40.9291 24.527 40.3357 24.2303Z" fill="black"/>
<path d="M27.7069 19.299H9.60929V13.2131C9.60929 9.90142 12.3395 7.2072 15.6952 7.2072C19.0069 7.2072 21.7011 9.90142 21.7011 13.2131V15.6154C21.7011 16.2788 22.2389 16.8166 22.9023 16.8166H27.707C28.3703 16.8166 28.9081 16.2788 28.9081 15.6154V13.2131C28.9081 5.92755 22.9809 0.000244141 15.6953 0.000244141C8.36552 0.000324219 2.40234 5.92755 2.40234 13.2131V19.5057C1.00426 20.0014 0 21.3366 0 22.9025V37.3966C0 39.3835 1.61654 41.0001 3.60352 41.0001H27.7069C29.6938 41.0001 31.3104 39.3835 31.3104 37.3966V22.9025C31.3104 20.9155 29.6938 19.299 27.7069 19.299ZM4.80469 13.2131C4.80469 7.2522 9.69025 2.40267 15.6952 2.40267C21.6562 2.40267 26.5057 7.25228 26.5057 13.2131V14.4143H24.1034V13.2131C24.1034 8.57685 20.3314 4.80501 15.6952 4.80501C11.0453 4.80501 7.20703 8.57829 7.20703 13.2131V19.2991H4.80469V13.2131ZM28.908 37.3966C28.908 38.0589 28.3692 38.5977 27.7069 38.5977H3.60352C2.94119 38.5977 2.40234 38.0589 2.40234 37.3966V22.9025C2.40234 22.2402 2.94119 21.7013 3.60352 21.7013C4.72365 21.7013 26.7367 21.7013 27.7069 21.7013C28.3692 21.7013 28.908 22.2402 28.908 22.9025V37.3966Z" fill="black"/>
<path d="M15.6952 24.1035C13.7082 24.1035 12.0917 25.7201 12.0917 27.707C12.0917 29.273 13.0959 30.6081 14.494 31.1039V34.9941C14.494 35.6575 15.0318 36.1953 15.6952 36.1953C16.3586 36.1953 16.8964 35.6575 16.8964 34.9941V31.1039C18.2944 30.6081 19.2987 29.273 19.2987 27.707C19.2987 25.7201 17.6822 24.1035 15.6952 24.1035ZM15.6952 28.9081C15.0329 28.9081 14.494 28.3693 14.494 27.707C14.494 27.0446 15.0329 26.5058 15.6952 26.5058C16.3575 26.5058 16.8964 27.0446 16.8964 27.707C16.8964 28.3693 16.3575 28.9081 15.6952 28.9081Z" fill="black"/>
<path d="M39.7986 16.8965H34.9939C34.3305 16.8965 33.7927 17.4343 33.7927 18.0977C33.7927 18.761 34.3305 19.2988 34.9939 19.2988H39.7986C40.462 19.2988 40.9998 18.761 40.9998 18.0977C40.9998 17.4343 40.462 16.8965 39.7986 16.8965Z" fill="black"/>
</g>
<defs>
<clipPath id="clip0_139_95">
<rect width="41" height="41" fill="white"/>
</clipPath>
</defs>
</svg>
