<svg xmlns="http://www.w3.org/2000/svg" width="64" height="64" viewBox="0 0 64 64"><path fill="#919191" d="M53.2 52c-1-7-6.2-11.9-14.3-13.7 4-2.5 6.7-6.9 6.7-11.9 0-7.7-6.3-14.1-14.1-14.1-7.2 0-13.2 5.6-14 12.6 0 .2-.1 1.5-.1 1.5 0 5.1 2.7 9.6 6.8 12C16.6 40.2 11.7 45 10.7 52c.9.9 1.8 1.8 2.9 2.7l-.2-1.6c.4-5.2 3.4-9 8.5-11 0 0 3.5-1.7 9.5-1.7 6.6 0 10.2 1.6 10.2 1.6 4.8 1.8 8.6 5.3 9.1 11l-.3 1.5c1.1-.7 2-1.6 2.8-2.5zM30 15.2c1-.1 1.1.2 1.6.2 5.4.1 10.1 4.6 11.1 9.6h-1.3c-4.2 0-7.4-1.4-9.2-3.5-1.7-1.9-2.2-4.7-2.2-6v-.3zm-2.7.9c-.6 5.8-4.3 7.5-6.6 8 .7-3.7 3.2-6.6 6.6-8zM20.4 27c2.9-.4 6.5-2 8.4-5.9.4.6.8 1.2 1.3 1.9 2.5 2.7 6.3 4.1 11.2 4.1h1.5c-.3 6-5.3 10.6-11.2 10.6-5.9-.1-10.8-4.8-11.2-10.7zM32 3c16 0 29 13 29 29S48 61 32 61 3 48 3 32 16 3 32 3m0-3C14.3 0 0 14.3 0 32s14.3 32 32 32 32-14.3 32-32S49.7 0 32 0"/></svg>